<?xml version="1.0" encoding="UTF-8" standalone="no"?>
<!-- Created with Inkscape (http://www.inkscape.org/) -->

<svg
   width="104.52976mm"
   height="107.65203mm"
   viewBox="0 0 104.52976 107.65203"
   version="1.1"
   id="svg5"
   inkscape:export-filename="C:\Users\zambo\hikericon.png"
   inkscape:export-xdpi="96"
   inkscape:export-ydpi="96"
   inkscape:version="1.1 (c68e22c387, 2021-05-23)"
   sodipodi:docname="edit-icon.svg"
   xmlns:inkscape="http://www.inkscape.org/namespaces/inkscape"
   xmlns:sodipodi="http://sodipodi.sourceforge.net/DTD/sodipodi-0.dtd"
   xmlns="http://www.w3.org/2000/svg"
   xmlns:svg="http://www.w3.org/2000/svg">
  <sodipodi:namedview
     id="namedview7"
     pagecolor="#ffffff"
     bordercolor="#666666"
     borderopacity="1.0"
     inkscape:pageshadow="2"
     inkscape:pageopacity="0.0"
     inkscape:pagecheckerboard="0"
     inkscape:document-units="mm"
     showgrid="false"
     inkscape:zoom="0.9814281"
     inkscape:cx="101.89233"
     inkscape:cy="230.27667"
     inkscape:window-width="1600"
     inkscape:window-height="1170"
     inkscape:window-x="0"
     inkscape:window-y="0"
     inkscape:window-maximized="1"
     inkscape:current-layer="layer1"
     inkscape:snap-global="false" />
  <defs
     id="defs2">
    <clipPath
       clipPathUnits="userSpaceOnUse"
       id="clipPath1256">
      <rect
         style="opacity:0.89;fill:#808080;stroke-width:0.980265"
         id="rect1258"
         width="113.61488"
         height="113.61488"
         x="16.012833"
         y="65.957642" />
    </clipPath>
  </defs>
  <g
     inkscape:label="Layer 1"
     inkscape:groupmode="layer"
     id="layer1"
     transform="translate(-17.091537,-51.332559)">
    <rect
       style="opacity:0.89;fill:#afe9c6;stroke-width:0.750001"
       id="rect1492"
       width="112.11271"
       height="117.13155"
       x="-43.993378"
       y="206.29541" />
    <path
       style="fill:#000000;stroke-width:0.264583"
       d="m 178.94991,273.14918 c -3.43156,-8.54325 -4.48281,-11.61536 -5.1057,-14.9207 -0.49285,-2.61522 -0.50635,-44.29471 -0.015,-46.26421 1.14551,-4.59156 5.1962,-9.11432 9.87429,-11.02509 1.41379,-0.57746 2.31602,-0.71906 5.90224,-0.92634 5.17249,-0.29896 14.54607,-0.0308 16.47369,0.47128 3.22769,0.84071 5.53213,2.57709 9.26643,6.98223 4.75512,5.60936 7.80466,7.92848 12.41814,9.44376 1.19622,0.39289 2.23098,0.65831 2.29948,0.58982 0.0685,-0.0685 -0.22411,-2.14572 -0.65025,-4.61604 -0.88702,-5.14213 -0.94731,-6.27222 -0.36568,-6.85385 0.52297,-0.52297 1.79797,-0.53953 2.2218,-0.0289 0.17662,0.21281 0.72247,2.62383 1.21301,5.35781 0.49054,2.73399 0.98569,5.43012 1.10034,5.99139 l 0.20845,1.0205 2.41277,0.60846 c 1.32702,0.33464 2.7908,0.80393 3.25284,1.04286 2.18883,1.13189 2.70916,4.54938 0.98253,6.45314 -0.81715,0.90098 -1.68931,1.28479 -3.40727,1.49944 -0.8366,0.10452 -1.52108,0.2352 -1.52108,0.29039 0,0.0552 2.14312,12.031 4.7625,26.61292 2.61937,14.58191 4.7625,26.61357 4.7625,26.737 0,0.12344 -0.73296,0.18898 -1.62881,0.14566 l -1.62881,-0.0788 -2.05942,-11.37709 c -1.13268,-6.25736 -3.19317,-17.70353 -4.57887,-25.4359 -1.38569,-7.73238 -2.71054,-14.89911 -2.94412,-15.92608 l -0.42469,-1.86723 -1.50358,-0.29889 c -8.02647,-1.5956 -11.91509,-3.4382 -17.01536,-8.06261 -2.34768,-2.12866 -3.46011,-2.81488 -3.88126,-2.3942 -0.27928,0.27898 -0.40023,19.97732 -0.18255,29.73305 l 0.19091,8.55644 1.25361,1.49772 c 0.68949,0.82376 4.49888,4.83148 8.46532,8.90607 l 7.21169,7.40833 2.08363,4.23333 c 1.146,2.32834 2.08512,4.4417 2.08693,4.69636 0.003,0.43256 -0.61033,0.46204 -9.32326,0.44815 l -9.32656,-0.0149 -1.31927,-1.57056 c -0.7256,-0.86381 -4.98869,-5.23267 -9.47352,-9.70857 -7.71535,-7.69998 -8.12645,-8.0668 -7.63783,-6.81509 0.28404,0.7276 2.08881,4.95432 4.01061,9.39271 1.9218,4.43838 3.55421,8.21862 3.62759,8.40052 0.10523,0.26087 -1.84595,0.33073 -9.23725,0.33073 h -9.37066 l -3.48051,-8.66511 z m 71.11313,8.54858 c 0,-0.70556 2.48044,-6.49806 2.78258,-6.49806 0.0703,0 0.12783,1.48828 0.12783,3.30729 v 3.30729 h -1.45521 c -0.80036,0 -1.4552,-0.0524 -1.4552,-0.11652 z m -86.78333,-32.16887 c -2.98317,-0.0906 -5.45338,-0.18574 -5.48934,-0.21151 -0.97653,-0.69971 -2.37207,-2.28851 -2.86559,-3.26241 l -0.6409,-1.26476 0.002,-10.26141 c 0.002,-11.8206 0.19841,-14.28364 1.32884,-16.70662 1.47289,-3.15702 4.49043,-6.01119 7.60535,-7.1936 1.72136,-0.65342 5.06247,-1.11739 6.34332,-0.88087 l 0.8599,0.15878 v 19.94661 19.9466 l -0.85989,-0.0531 c -0.47295,-0.0292 -3.30068,-0.12717 -6.28386,-0.21773 z m 26.45122,-54.30663 c -4.10536,-1.39966 -6.79246,-4.59155 -7.37515,-8.76065 -0.66647,-4.76852 1.70957,-9.13443 6.20782,-11.40672 1.46216,-0.73861 1.77351,-0.79375 4.48174,-0.79375 2.65775,0 3.04248,0.0648 4.4317,0.74703 4.48386,2.20181 7.13288,7.02887 6.30955,11.49729 -0.84538,4.58804 -3.7462,7.7784 -8.10467,8.91364 -2.13849,0.55701 -3.91193,0.49835 -5.95099,-0.19684 z"
       id="path1370" />
    <path
       style="fill:#000000;stroke-width:0.209103"
       d="m -80.3747,245.55835 c 0,-0.092 0.08487,-0.25665 0.1886,-0.36592 0.103737,-0.10924 2.063724,-3.30383 4.355536,-7.09911 6.406666,-10.60946 10.708936,-17.69904 11.230132,-18.50576 0.260059,-0.40253 1.164651,-1.89324 2.010206,-3.31269 1.448231,-2.43118 2.993857,-4.21509 3.652066,-4.21509 0.141943,0 0.312641,-0.25876 0.379328,-0.57502 0.184559,-0.8753 1.465258,-6.37676 2.519091,-10.82118 4.467051,-18.83929 4.51877,-19.09773 4.519424,-22.58331 8.27e-4,-4.27709 -0.72433,-7.25524 -3.271795,-13.43738 -4.300372,-10.4361 -4.567983,-11.16201 -5.337308,-14.47811 -0.451119,-1.94451 -0.462418,-2.34232 -0.534517,-18.81938 -0.08226,-18.80073 -0.10408,-18.45661 1.354885,-21.37291 1.484025,-2.9664 4.848553,-5.67679 8.123745,-6.54431 1.838181,-0.4869 14.537021,-0.4686 16.195028,0.0233 2.855248,0.84715 4.648761,2.1401 7.023461,5.06321 3.365475,4.14271 5.045322,5.64782 7.918839,7.09516 1.284766,0.64711 4.071296,1.59229 4.229086,1.43451 0.0484,-0.0483 -0.24551,-1.93327 -0.65301,-4.18873 -0.600725,-3.32488 -0.695728,-4.19999 -0.502085,-4.625 0.417705,-0.91674 1.884465,-0.93328 2.263395,-0.0255 0.10385,0.24879 0.53522,2.47545 0.9586,4.94812 0.42338,2.47266 0.78268,4.5145 0.79848,4.5374 0.0158,0.0229 0.91602,0.2393 2.00051,0.48086 1.0844898,0.24157 2.2840998,0.63222 2.6657898,0.86812 1.00369,0.62032 1.5879,1.87944 1.4651,3.15759 -0.18134,1.88723 -1.55259,3.08413 -3.5334298,3.08413 -0.67302,0 -1.22369,0.0617 -1.22369,0.13681 0,0.0752 0.37366,2.16889 0.83036,4.65257 0.7866198,4.27787 1.8601898,10.25344 4.8122898,26.78543 2.301871,12.89073 3.213711,17.49935 3.213711,17.49935 0,0 39.8712402,-13.58887 41.1248202,29.5492 0.31088,8.97127 0.82663,25.6598 0.8292,26.83002 0.002,0.74922 -0.0643,0.96556 -0.2592,0.84856 -0.16022,-0.0963 -0.14403,-0.0127 0.0418,0.21637 0.30418,0.37453 0.58443,5.58324 0.62268,11.57356 l 0.015,2.35242 h -60.013063 c -33.007186,0 -60.013065,-0.0752 -60.013065,-0.16728 z m 65.894677,-0.61685 c 0.2601,-0.33163 0.25271,-0.33904 -0.0789,-0.0789 -0.20127,0.15784 -0.36594,0.32252 -0.36594,0.36593 0,0.17211 0.17171,0.0615 0.44488,-0.28699 z m 1.67282,-1.67284 c 0.26011,-0.33166 0.25271,-0.33904 -0.0789,-0.0789 -0.20127,0.15786 -0.36593,0.32252 -0.36593,0.36595 0,0.1721 0.17171,0.0615 0.44488,-0.28698 z m 1.67286,-1.67284 c 0.26009,-0.33164 0.2527,-0.33905 -0.0789,-0.0789 -0.20126,0.15784 -0.36594,0.3225 -0.36594,0.36591 0,0.17212 0.17171,0.0615 0.44488,-0.28697 z m 1.6728298,-1.67284 c 0.26011,-0.33165 0.2527,-0.33903 -0.0789,-0.0789 -0.20125,0.15786 -0.36594,0.32252 -0.36594,0.36594 0,0.17211 0.17171,0.0614 0.4449,-0.287 z m 1.67285,-1.67283 c 0.26007,-0.33166 0.25269,-0.33903 -0.0789,-0.0789 -0.20124,0.15783 -0.36592,0.3225 -0.36592,0.36592 0,0.17212 0.1717,0.0615 0.44487,-0.28698 z m 1.67282,-1.67283 c 0.26011,-0.33167 0.25271,-0.33905 -0.0789,-0.0789 -0.20126,0.15784 -0.36593,0.3225 -0.36593,0.36592 0,0.1721 0.17172,0.0615 0.44489,-0.28698 z m 1.672841,-1.67284 c 0.26011,-0.33166 0.25271,-0.33904 -0.0789,-0.0789 -0.20127,0.15784 -0.36594,0.32253 -0.36594,0.36594 0,0.17211 0.17171,0.0615 0.44488,-0.28698 z m 1.67285,-1.67284 c 0.26009,-0.33167 0.25271,-0.33905 -0.0789,-0.0789 -0.20127,0.15784 -0.36594,0.32251 -0.36594,0.36593 0,0.17209 0.1717,0.0615 0.44486,-0.28698 z m 1.67283,-1.67284 c 0.26009997,-0.33165 0.25271997,-0.33903 -0.0789,-0.0789 -0.20127,0.15784 -0.36595,0.32252 -0.36595,0.36594 0,0.17212 0.17174,0.0615 0.44489,-0.28698 z m 39.7032502,-0.32019 c 0,-0.0324 -0.58812,-0.62047 -1.30689,-1.3069 l -1.30692,-1.24809 1.24808,1.30689 c 1.15936,1.214 1.36573,1.4026 1.36573,1.2481 z M 0.57551777,229.88595 c 0.2601,-0.33163 0.2527,-0.33905 -0.0789,-0.0789 -0.20127,0.15785 -0.36596,0.32252 -0.36596,0.36593 0,0.17208 0.17173,0.0615 0.44489,-0.28698 z M -39.030906,208.89635 c 0.720833,-0.3575 1.300039,-0.9001 2.075199,-1.94408 1.355813,-1.82604 2.302927,-2.39992 4.387929,-2.65877 1.86479,-0.23153 2.417762,-0.4831 3.841952,-1.74799 1.567432,-1.39211 2.146356,-1.62379 4.470098,-1.78897 l 2.06539,-0.14683 1.141146,-1.28109 c 0.654019,-0.7342 1.736115,-1.631 2.534912,-2.10081 0.766572,-0.45087 1.567358,-0.94963 1.779527,-1.10838 0.36379,-0.27221 0.13873,-0.812 -3.951511,-9.47757 -2.385502,-5.0539 -5.07619,-10.72165 -5.979314,-12.59497 -0.90312,-1.87333 -1.642039,-3.44355 -1.642039,-3.48933 0,-0.0459 -0.654434,-1.00665 -1.454298,-2.1352 -1.094689,-1.54456 -3.188791,-3.78385 -8.468741,-9.05579 -3.857945,-3.85213 -7.014446,-6.93474 -7.014446,-6.85027 0,0.12645 4.008905,9.4822 6.790688,15.8477 0.960478,2.19786 1.44029,4.51537 1.42717,6.89334 -0.0086,1.54876 -0.319086,3.59917 -1.409305,9.30516 -0.769094,4.02527 -1.44583,7.60096 -1.503857,7.94599 -0.05803,0.34502 -0.757788,4.11381 -1.555024,8.37509 -0.797234,4.26126 -1.44952,7.95167 -1.44952,8.2009 0,0.42834 0.07963,0.44913 1.457063,0.38041 0.997088,-0.0497 1.772724,-0.22921 2.456981,-0.56854 z m 74.317814,-14.13998 c 0.26013,-0.33167 0.25272,-0.33904 -0.0789,-0.0789 -0.20124,0.15784 -0.36591,0.32252 -0.36591,0.36594 0,0.17211 0.17169,0.0615 0.44487,-0.28699 z m -77.159659,-0.62733 c 0.2601,-0.33165 0.252702,-0.33904 -0.07896,-0.0789 -0.201263,0.15784 -0.365932,0.3225 -0.365932,0.36593 0,0.17209 0.171715,0.0615 0.444883,-0.287 z m 78.832519,-1.04552 c 0.26008,-0.33164 0.2527,-0.33904 -0.0789,-0.0789 -0.20124,0.15784 -0.36592,0.32252 -0.36592,0.36593 0,0.1721 0.17171,0.0615 0.44486,-0.28699 z M -6.9835832,182.34808 c 0.002,-0.0678 0.47494,-0.96177 1.04972,-1.98649 0.574771,-1.02471 1.044801,-2.09837 1.044531,-2.38589 -2e-4,-0.2875 -0.2744,-2.02829 -0.609181,-3.86843 -0.84275,-4.63199 -2.34249,-13.08563 -2.41128,-13.5918 -0.0312,-0.23002 -0.11373,-0.65347 -0.1832,-0.94097 -0.0696,-0.28753 -0.40851,-2.12242 -0.75337,-4.07756 -0.34486,-1.95512 -1.14409,-6.42474 -1.7760398,-9.93246 -0.63197,-3.50774 -1.72254,-9.62166 -2.42346,-13.58648 -0.70094,-3.96483 -1.37828,-7.27298 -1.50521,-7.35142 -0.12692,-0.0784 -1.08632,-0.30673 -2.13197,-0.50731 -5.616903,-1.07742 -9.045738,-2.79585 -12.795158,-6.41256 -1.916162,-1.84834 -2.337823,-2.08124 -2.787337,-1.53962 -0.299604,0.36101 -0.19726,29.11671 0.107306,30.1523 0.129041,0.43871 2.334405,2.84007 6.778076,7.38035 l 6.5868,6.73005 1.722182,3.47516 c 1.333761,2.69141 1.669011,3.53926 1.486431,3.75924 -0.18276,0.22023 -0.16735,0.25782 0.0686,0.16728 0.22844,-0.0877 1.05213,1.46235 3.30333,6.21608 1.64946,3.48307 3.3319298,7.02154 3.7387898,7.86324 l 0.73976,1.53038 0.37302,-0.48486 c 0.20517,-0.26666 0.37511,-0.54037 0.37766,-0.60823 z m -16.4879508,-6.62024 c 0.260099,-0.33167 0.252705,-0.33907 -0.07896,-0.0789 -0.201263,0.15784 -0.365934,0.32253 -0.365934,0.36594 0,0.1721 0.171715,0.0615 0.444885,-0.28698 z m 1.672839,-1.67285 c 0.260098,-0.33164 0.252703,-0.33905 -0.07896,-0.0789 -0.201264,0.15786 -0.365932,0.32252 -0.365932,0.36595 0,0.1721 0.171715,0.0615 0.444881,-0.287 z m 1.733444,-1.69715 c 0.06158,-0.0997 -0.09754,-0.35842 -0.353591,-0.57506 -0.464339,-0.39283 -0.464599,-0.39275 -0.09918,0.0414 0.201513,0.23935 0.303452,0.49811 0.22653,0.57505 -0.07692,0.0769 -0.08268,0.13985 -0.01281,0.13985 0.06989,0 0.177443,-0.0817 0.239021,-0.18115 z m 1.612231,-1.64852 c 0.260102,-0.33166 0.252703,-0.33906 -0.07896,-0.0789 -0.201262,0.15785 -0.365933,0.32251 -0.365933,0.36595 0,0.17209 0.171716,0.0615 0.444885,-0.287 z m 1.672847,-1.67284 c 0.26009,-0.33165 0.2527,-0.33905 -0.07895,-0.0789 -0.201265,0.15784 -0.365941,0.3225 -0.365941,0.36593 0,0.17209 0.171711,0.0614 0.444881,-0.28699 z m 10.0370298,-10.03702 c 0.26009,-0.33165 0.25271,-0.33905 -0.0789,-0.0789 -0.20126,0.15786 -0.36593,0.32252 -0.36593,0.36595 0,0.17211 0.17171,0.0615 0.44487,-0.28698 z M -72.742375,142.13749 c -1.061424,-0.46369 -2.023299,-1.42059 -2.537096,-2.52394 l -0.490839,-1.05409 0.0011,-8.99151 c 0.0012,-9.93781 0.06659,-10.58949 1.299532,-12.94502 0.899413,-1.7183 3.048582,-3.81393 4.782292,-4.66314 1.913212,-0.93713 3.305091,-1.19866 5.988842,-1.12528 l 0.679593,0.0186 v 15.78741 15.78741 l -4.54803,-0.009 c -3.276358,-0.003 -4.72343,-0.0848 -5.175342,-0.28223 z m 26.056191,-42.373541 c -2.584418,-0.537057 -5.108736,-2.429129 -6.134837,-4.598285 -2.128846,-4.500358 -0.414456,-9.50668 3.990557,-11.653126 1.518563,-0.739955 1.703891,-0.779211 3.689916,-0.781567 1.919389,-0.0023 2.206456,0.05219 3.496926,0.663514 3.917494,1.855798 5.917764,5.931472 4.875307,9.933733 -0.966202,3.709502 -3.910146,6.186851 -7.745924,6.518253 -0.689493,0.05956 -1.666867,0.02243 -2.171945,-0.08252 z"
       id="path1658"
       inkscape:export-filename="C:\Users\zambo\hikericon.png"
       inkscape:export-xdpi="96"
       inkscape:export-ydpi="96"
       sodipodi:nodetypes="sscssssscssssscsscssssssscsssscccccscsssccscccssccccscccsscccssccccsccccsccccscccssccsscssccsccsssssccsssssscsscsssscscssccssssscsscccsccccsssccsssccsscsscccccsccsssssscccssssssssscsssccscccccccscccccccscscsscss" />
    <path
       style="fill:#000000;stroke-width:0.2696"
       d="m 155.16747,283.54031 c -0.0105,-0.25948 -0.18067,-0.47179 -0.37831,-0.47179 -0.21285,0 -0.33192,-0.24729 -0.29206,-0.60662 0.037,-0.33362 0.0792,-0.72791 0.0939,-0.87619 0.0145,-0.14828 0.14605,-0.0877 0.29208,0.1348 0.21726,0.33098 0.30759,0.33911 0.49755,0.0449 0.18714,-0.28997 0.26381,-0.27693 0.39593,0.0673 0.11532,0.30049 0.005,0.427 -0.36687,0.427 -0.29192,0 -0.53074,0.12848 -0.53074,0.28552 0,0.15703 0.11292,0.21571 0.25097,0.13039 0.37555,-0.23211 0.51913,0.18653 0.27343,0.79729 -0.18417,0.45783 -0.21977,0.468 -0.23585,0.0673 z m 1.28579,0.0998 c 0.21831,-0.13837 0.32495,-0.58098 0.26961,-1.119 -0.0521,-0.50566 0.0417,-0.93464 0.21725,-0.99323 0.19337,-0.0646 0.34527,0.35523 0.40635,1.12313 0.0919,1.15602 0.0588,1.22603 -0.57841,1.22214 -0.47523,-0.003 -0.5687,-0.0722 -0.3148,-0.23304 z m 1.8237,0.013 c -0.0864,-0.13974 0.054,-0.23744 0.31185,-0.21714 0.34675,0.0273 0.46891,-0.16789 0.46891,-0.74935 0,-0.43249 -0.15164,-0.83689 -0.337,-0.89869 -0.18535,-0.0617 -0.337,0.0696 -0.337,0.29207 0,0.22243 0.15165,0.4656 0.337,0.5404 0.19451,0.0785 0.12958,0.14498 -0.15356,0.15726 -0.359,0.0156 -0.46745,-0.14138 -0.40439,-0.58531 0.0565,-0.39816 0.27144,-0.60661 0.62535,-0.60661 0.44902,0 0.5392,0.17974 0.5392,1.07471 0,0.78614 -0.11992,1.09781 -0.44665,1.16073 -0.24568,0.0472 -0.51734,-0.0283 -0.60371,-0.16807 z m 1.83824,-0.13747 c -0.0848,-0.22085 -0.11471,-0.74543 -0.0666,-1.16572 0.0635,-0.55529 0.23488,-0.76418 0.62669,-0.76418 0.44902,0 0.53919,0.17974 0.53919,1.07471 0,0.8099 -0.11645,1.09714 -0.47261,1.16573 -0.25994,0.05 -0.54195,-0.0897 -0.62671,-0.31054 z m 0.91996,-1.0226 c -0.0495,-0.35074 -0.21155,-0.61378 -0.35984,-0.58455 -0.34573,0.0682 -0.4981,0.7966 -0.28356,1.35569 0.24362,0.63486 0.75552,0.0213 0.6434,-0.77115 z m 1.00695,1.06724 c -0.063,-0.19632 -0.0929,-0.72089 -0.0666,-1.16574 0.0362,-0.61313 0.17827,-0.8088 0.58702,-0.8088 0.44902,0 0.53921,0.17974 0.53921,1.07471 0,0.8099 -0.11647,1.09714 -0.47262,1.16573 -0.25994,0.05 -0.5241,-0.0696 -0.58702,-0.2659 z m 0.92483,-0.35694 c 0,-0.22242 -0.18199,-0.40441 -0.40441,-0.40441 -0.22241,0 -0.40439,0.18199 -0.40439,0.40441 0,0.22243 0.18198,0.40439 0.40439,0.40439 0.22242,0 0.40441,-0.18196 0.40441,-0.40439 z m 0,-1.07841 c 0,-0.22242 -0.11417,-0.40439 -0.25369,-0.40439 -0.33997,0 -0.58346,0.42099 -0.36805,0.6364 0.30362,0.3036 0.62174,0.18491 0.62174,-0.23201 z m 0.97164,1.52817 c -0.0864,-0.13974 0.054,-0.23744 0.31186,-0.21713 0.34674,0.0273 0.4689,-0.16789 0.4689,-0.74936 0,-0.43249 -0.15164,-0.83689 -0.337,-0.89868 -0.18534,-0.0617 -0.337,0.0696 -0.337,0.29207 0,0.22242 0.15166,0.4656 0.337,0.54039 0.1945,0.0785 0.12958,0.14498 -0.15355,0.15726 -0.359,0.0156 -0.46746,-0.14138 -0.4044,-0.58532 0.0565,-0.39815 0.27143,-0.6066 0.62535,-0.6066 0.44903,0 0.53919,0.17973 0.53919,1.07472 0,0.78613 -0.11992,1.0978 -0.44665,1.16073 -0.24567,0.0472 -0.51733,-0.0283 -0.6037,-0.16808 z m 1.95071,-0.013 c 0.21832,-0.13837 0.32495,-0.58098 0.26961,-1.119 -0.052,-0.50566 0.0418,-0.93463 0.21726,-0.99323 0.19337,-0.0646 0.34527,0.35523 0.40635,1.12314 0.0919,1.15601 0.0588,1.22603 -0.57843,1.22213 -0.47522,-0.003 -0.5687,-0.0722 -0.31479,-0.23304 z m 1.8237,0.013 c -0.0864,-0.13974 0.041,-0.23744 0.28285,-0.21713 0.6683,0.0562 0.77327,-0.65076 0.12192,-0.82109 -0.32362,-0.0846 -0.56761,-0.36669 -0.56761,-0.65619 0,-0.38177 0.18396,-0.5 0.74141,-0.47648 0.45614,0.0193 0.55986,0.0787 0.2696,0.15456 -0.58615,0.15319 -0.61008,0.51222 -0.0485,0.72772 0.55052,0.21126 0.39816,1.34445 -0.19597,1.45763 -0.24568,0.0468 -0.51734,-0.0292 -0.60371,-0.16902 z m 1.88719,0 c -0.0864,-0.13974 0.041,-0.23744 0.28286,-0.21713 0.6683,0.0562 0.77326,-0.65076 0.12193,-0.82109 -0.32362,-0.0846 -0.56761,-0.36669 -0.56761,-0.65619 0,-0.37832 0.18899,-0.50341 0.7414,-0.49067 l 0.7414,0.0172 -0.674,0.27891 -0.674,0.27889 0.62557,0.24154 c 0.4441,0.17149 0.60053,0.41722 0.5392,0.84707 -0.0887,0.62233 -0.85671,0.9747 -1.13675,0.52159 z m 1.83826,-0.13746 c -0.0848,-0.22086 -0.11471,-0.74543 -0.0666,-1.16573 0.0635,-0.55529 0.2349,-0.76418 0.6267,-0.76418 0.44903,0 0.5392,0.17973 0.5392,1.07472 0,0.80989 -0.11645,1.09713 -0.47261,1.16572 -0.25994,0.05 -0.54197,-0.0897 -0.62671,-0.31053 z m 0.91995,-1.02261 c -0.0495,-0.35073 -0.21155,-0.61377 -0.35983,-0.58454 -0.34574,0.0682 -0.49811,0.7966 -0.28355,1.35569 0.24362,0.63486 0.75551,0.0213 0.64338,-0.77115 z M 82.976286,271.24628 c -2.779696,-0.9665 -4.953202,-3.0719 -5.886274,-5.70184 -0.389561,-1.098 -1.298949,-12.21246 -3.341912,-40.84453 -0.158701,-2.22419 -0.652539,-8.95415 -1.097419,-14.95545 -1.003389,-13.53544 -1.00391,-13.58652 -0.147121,-14.4433 l 0.661745,-0.66175 h 33.945215 33.94521 l 0.71077,0.71076 c 0.89777,0.89778 0.90142,0.38209 -0.0979,13.84769 -0.44567,6.00536 -1.5348,20.80646 -2.42029,32.89131 -0.8855,12.08487 -1.71826,22.33989 -1.85059,22.78895 -0.76591,2.59914 -2.6044,4.74656 -5.12227,5.98304 l -1.52585,0.7493 -23.18568,0.0616 c -21.761332,0.0578 -23.271809,0.0317 -24.58765,-0.42581 z m 8.693447,-11.21638 c 0.814505,-0.81452 0.804559,0.68566 0.134113,-20.23234 -1.247357,-38.91769 -1.100173,-35.96248 -1.834563,-36.83525 -0.797914,-0.94827 -2.083928,-1.03678 -3.128262,-0.21531 -0.692019,0.54435 -0.710299,0.63657 -0.707961,3.57221 0.0014,1.6574 0.364533,14.11427 0.80714,27.68194 0.442606,13.56766 0.805487,24.82563 0.806404,25.01773 8.08e-4,0.19209 0.299451,0.64704 0.663411,1.01102 0.900333,0.90032 2.359386,0.90032 3.259718,0 z m 17.127817,-0.0339 0.65359,-0.69572 V 231.3949 203.48957 l -0.75643,-0.65065 c -1.10077,-0.94684 -2.37519,-0.87701 -3.26362,0.17883 l -0.69796,0.82948 v 27.59273 27.59272 l 0.69796,0.82949 c 0.92785,1.10268 2.40121,1.16122 3.36646,0.13377 z m 16.95759,0.16338 c 0.29279,-0.29279 0.59477,-0.8084 0.67105,-1.14579 0.11267,-0.49831 1.29419,-40.18126 1.55812,-52.33177 l 0.0693,-3.19013 -0.75643,-0.65168 c -0.96538,-0.83169 -2.10301,-0.83309 -3.06716,-0.004 -0.6889,0.59256 -0.75993,0.82866 -0.83139,2.76341 -0.21205,5.74091 -1.41104,49.41035 -1.41104,51.39257 0,1.89717 0.0936,2.39775 0.55877,2.98916 0.70982,0.90239 2.39114,0.99565 3.20879,0.17801 z M 68.734075,188.91992 c -0.682729,-0.81138 -0.72151,-0.99629 -0.607831,-2.89821 0.145718,-2.43798 0.79578,-3.85882 2.389697,-5.22315 1.909969,-1.63486 2.792254,-1.79601 9.833349,-1.79601 h 6.254618 l 0.114767,-2.359 c 0.195761,-4.02387 2.022381,-6.87772 5.492692,-8.58162 l 1.602921,-0.78702 h 13.755172 13.75517 l 1.79671,0.88445 c 3.39254,1.67 5.24297,4.59597 5.53604,8.75379 l 0.14728,2.0894 h 5.57416 c 6.24237,0 7.55353,0.23115 9.24451,1.62971 1.67085,1.38192 2.4333,2.97053 2.5715,5.35796 0.11199,1.93449 0.074,2.11702 -0.60983,2.9297 l -0.72927,0.86667 h -37.6962 -37.696196 z m 54.061305,-11.60237 c -0.001,-2.15817 -0.64029,-3.27438 -2.29301,-4.00546 -1.14645,-0.50713 -1.75379,-0.52781 -13.31862,-0.45346 -11.755013,0.0756 -12.139653,0.0945 -12.861572,0.63376 -1.374719,1.02685 -1.823348,1.89556 -1.94211,3.76066 l -0.111399,1.7495 h 15.263861 15.26386 l -0.001,-1.685 z"
       id="path2347" />
    <path
       style="fill:#000000;stroke-width:0.200361"
       d="m -26.877119,202.58516 c -0.912936,-0.27958 -1.33834,-0.50737 -1.302347,-0.69734 0.02939,-0.15518 0.662049,-0.48736 1.40589,-0.7382 1.096232,-0.36965 1.352439,-0.4016 1.352439,-0.16867 0,0.15806 -0.180325,0.28739 -0.400723,0.28739 -0.311673,0 -0.400723,0.13357 -0.400723,0.60108 0,0.38977 0.101493,0.60108 0.288718,0.60108 0.269763,0 0.638038,0.36516 0.482701,0.47862 -0.03859,0.0282 -0.680264,-0.1356 -1.425955,-0.36396 z m 0.253814,-0.68796 c 0,-0.28976 -0.111717,-0.35158 -0.500903,-0.27718 -0.780443,0.14919 -0.595071,0.48061 0.350632,0.62688 0.08264,0.0128 0.150271,-0.14459 0.150271,-0.3497 z m -0.486591,-1.74517 c -0.173169,-0.17316 -0.314854,-0.44365 -0.314854,-0.60108 0,-0.17174 -0.200361,-0.28623 -0.500903,-0.28623 -0.275496,0 -0.500903,-0.0902 -0.500903,-0.20036 0,-0.11458 0.60318,-0.20036 1.408817,-0.20036 1.554478,0 1.834955,0.21913 1.426875,1.11476 -0.259966,0.57057 -1.033503,0.6588 -1.519032,0.17327 z m 1.250591,-0.53668 c 0.05191,-0.27237 -0.07061,-0.35063 -0.548947,-0.35063 -0.585046,0 -0.817797,0.33228 -0.473749,0.67632 0.255576,0.25558 0.954322,0.0331 1.022696,-0.32569 z m -1.369134,-1.76072 c -0.439965,-0.82209 0.269493,-1.59209 1.195969,-1.29804 0.942628,0.29918 0.620617,1.70633 -0.390474,1.70633 -0.385551,0 -0.66197,-0.14012 -0.805495,-0.40829 z m 1.306399,-0.4906 c 0,-0.44203 -0.622903,-0.66215 -0.949512,-0.33554 -0.336758,0.33676 -0.0047,0.86901 0.497804,0.79767 0.295568,-0.0419 0.451708,-0.20171 0.451708,-0.46213 z m -2.504516,-1.59686 c 0,-0.18843 0.178587,-0.30932 0.456976,-0.30932 0.32376,0 0.523118,-0.17522 0.683861,-0.60107 0.166418,-0.44091 0.356737,-0.60109 0.714137,-0.60109 0.626516,0 1.201361,0.63626 1.116455,1.23574 -0.06147,0.43398 -0.169867,0.47153 -1.51881,0.5262 -1.201384,0.0487 -1.452619,0.005 -1.452619,-0.25046 z m 2.604696,-0.48514 c 0,-0.31213 -0.586968,-0.67391 -0.899073,-0.55415 -0.558783,0.21443 -0.348326,0.72997 0.297989,0.72997 0.330596,0 0.601084,-0.0791 0.601084,-0.17582 z M -27.258141,193.36 c -0.265439,-0.58258 0.04721,-1.10792 0.65937,-1.10792 0.289639,0 0.376188,0.1475 0.376188,0.64115 0,0.72699 0.318415,0.55636 0.448686,-0.24044 0.07157,-0.43768 0.102316,-0.45503 0.243666,-0.13748 0.09235,0.20744 0.06632,0.5729 -0.06063,0.85153 -0.314967,0.69127 -1.35113,0.68703 -1.667278,-0.006 z m 0.552368,-0.65609 c -0.218875,-0.21887 -0.368961,0.1292 -0.211818,0.49125 0.149003,0.34329 0.159805,0.34297 0.242825,-0.007 0.04779,-0.20146 0.03384,-0.41936 -0.03101,-0.4842 z m -1.279989,-2.09479 c -0.283097,-0.2831 -0.323947,-1.16209 -0.05401,-1.16209 0.102533,0 0.215237,0.19579 0.250451,0.43511 0.0959,0.65178 0.423016,0.63725 0.806061,-0.0358 0.545379,-0.95826 1.683927,-0.64111 1.527409,0.42547 -0.09431,0.64263 -0.483924,0.68286 -0.474301,0.049 0.01135,-0.74785 -0.329915,-0.78084 -0.733928,-0.071 -0.354704,0.62323 -0.907467,0.77348 -1.321685,0.35926 z m 0.561012,-1.76318 c 0,-0.1102 -0.135243,-0.20036 -0.300542,-0.20036 -0.165297,0 -0.300542,-0.0902 -0.300542,-0.20036 0,-0.11021 0.127731,-0.20037 0.283846,-0.20037 0.156115,0 0.336439,-0.11271 0.400723,-0.25045 0.0935,-0.20036 0.140252,-0.20036 0.233755,0 0.06428,0.13774 0.372337,0.25045 0.684566,0.25045 0.31223,0 0.607942,-0.11271 0.657138,-0.25045 0.0492,-0.13775 0.15801,-0.18672 0.24181,-0.10882 0.349357,0.32474 -0.104495,0.76 -0.792478,0.76 -0.389154,0 -0.707553,0.0902 -0.707553,0.20036 0,0.1102 -0.09017,0.20035 -0.200361,0.20035 -0.110199,0 -0.200362,-0.0902 -0.200362,-0.20035 z m 0.196311,-1.61046 c -0.439965,-0.82209 0.269493,-1.59209 1.195969,-1.29804 0.942628,0.29919 0.620617,1.70633 -0.390474,1.70633 -0.385551,0 -0.66197,-0.14011 -0.805495,-0.40829 z m 1.306399,-0.49059 c 0,-0.44203 -0.622903,-0.66216 -0.949512,-0.33555 -0.336758,0.33677 -0.0047,0.869 0.497804,0.79768 0.295568,-0.042 0.451708,-0.20172 0.451708,-0.46213 z m -1.187856,-1.61994 c -0.341929,-0.34194 -0.429984,-1.08769 -0.128427,-1.08769 0.102533,0 0.215237,0.20287 0.250451,0.45082 0.0469,0.33022 0.198019,0.45081 0.564928,0.45081 0.366911,0 0.51803,-0.12059 0.564929,-0.45081 0.07209,-0.50757 0.436878,-0.62204 0.436878,-0.13709 0,0.97386 -1.020945,1.44177 -1.688759,0.77396 z m -1.31666,-1.78894 c 0,-0.2237 0.236222,-0.30055 0.923822,-0.30055 h 0.923823 l -0.473009,-0.38348 c -0.260156,-0.2109 -0.405941,-0.45078 -0.323968,-0.53306 0.08197,-0.0823 0.316006,0.001 0.520071,0.18619 0.348394,0.31528 0.403474,0.31025 0.902855,-0.0826 0.406002,-0.31937 0.531825,-0.34958 0.531825,-0.1277 0,0.15987 -0.202866,0.43216 -0.450814,0.60513 l -0.450812,0.31447 0.450812,0.0108 c 0.262478,0.007 0.450814,0.13607 0.450814,0.31105 0,0.24043 -0.300542,0.30054 -1.502709,0.30054 -1.202168,0 -1.50271,-0.0601 -1.50271,-0.30054 z m 0,-2.90524 c 0,-0.11952 0.768052,-0.20036 1.903431,-0.20036 1.135381,0 1.903432,0.0808 1.903432,0.20036 0,0.11951 -0.768051,0.20035 -1.903432,0.20035 -1.135379,0 -1.903431,-0.0808 -1.903431,-0.20035 z m 1.803251,-2.02505 c 0,-0.12199 -0.141943,-0.16733 -0.315428,-0.1008 -0.398665,0.15298 -1.008479,-0.38808 -0.634499,-0.56297 0.197433,-0.0924 0.197064,-0.14036 -0.0018,-0.23316 -0.137755,-0.0643 -0.250458,-0.21455 -0.250458,-0.33394 0,-0.11938 0.05933,-0.15773 0.131835,-0.0852 0.07251,0.0725 0.252836,0.0314 0.400723,-0.0913 0.283185,-0.23503 0.354573,-0.0619 0.279366,0.67744 -0.01962,0.19285 0.05484,0.35063 0.165462,0.35063 0.281147,0 0.469798,-0.35197 0.23245,-0.4337 -0.114722,-0.0396 -0.123985,-0.18181 -0.02247,-0.34523 0.139839,-0.2251 0.262574,-0.19087 0.644752,0.17983 0.348356,0.33788 0.380165,0.4255 0.121403,0.3344 -0.230804,-0.0813 -0.350632,-0.0229 -0.350632,0.17082 0,0.16183 0.157784,0.30058 0.350632,0.30833 0.299829,0.012 0.292571,0.039 -0.05008,0.18628 -0.557116,0.2394 -0.701265,0.23498 -0.701265,-0.0215 z m -1.160842,-1.91891 c -0.132927,-0.24071 -0.241687,-0.48865 -0.241687,-0.55099 0,-0.0623 0.586057,-0.11336 1.302348,-0.11336 0.734659,0 1.302349,0.0873 1.302349,0.20036 0,0.1102 -0.444202,0.20036 -0.987115,0.20036 -0.778518,0 -1.002656,0.074 -1.060661,0.35063 -0.06427,0.30639 -0.10404,0.29542 -0.315234,-0.087 z m 0.04922,-1.52584 c -0.65311,-0.35973 -0.0655,-1.52952 0.633561,-1.26126 0.180668,0.0694 0.440876,0.0327 0.578239,-0.0812 0.611747,-0.50771 1.429366,0.66646 0.904483,1.2989 -0.255571,0.30795 -1.58654,0.33535 -2.116283,0.0436 z m 0.710897,-0.65304 c 0,-0.1588 -0.135244,-0.28872 -0.300542,-0.28872 -0.301789,0 -0.411876,0.42296 -0.172414,0.66242 0.186986,0.18699 0.472956,-0.039 0.472956,-0.3737 z m 1.166769,0.0453 c 0.04368,-0.22523 -0.07054,-0.33403 -0.350632,-0.33403 -0.228478,0 -0.415414,0.12021 -0.415414,0.26715 0,0.61365 0.649015,0.67032 0.766046,0.0669 z m -2.075432,-1.54759 c -0.07198,-0.11647 -0.07559,-0.43202 -0.008,-0.70126 0.162286,-0.64661 1.12858,-0.67543 1.71031,-0.0511 l 0.408525,0.4385 v -0.53868 c 0,-0.29627 0.09017,-0.53869 0.200362,-0.53869 0.110198,0 0.200361,0.36065 0.200361,0.80145 0,0.9344 -0.153797,0.98993 -0.809273,0.29221 -0.589681,-0.6277 -1.301674,-0.59516 -1.278611,0.0584 0.01672,0.4741 -0.202099,0.59758 -0.423669,0.23906 z m 0.572723,-2.24267 c -0.460543,-0.51165 -0.733699,-1.15208 -0.491377,-1.15208 0.08905,0 0.264614,0.2254 0.390138,0.5009 0.242307,0.5318 0.706023,0.71214 0.508656,0.19781 -0.288247,-0.75116 0.941485,-1.22626 1.324002,-0.51151 0.281788,0.52651 0.26177,0.73162 -0.107443,1.10084 -0.448227,0.44823 -1.151099,0.38938 -1.623976,-0.13596 z m 1.437928,-0.45356 c 0,-0.56063 -0.586851,-0.4985 -0.667446,0.0707 -0.05146,0.36341 0.01602,0.45277 0.300541,0.39798 0.208771,-0.0402 0.366905,-0.24219 0.366905,-0.46865 z m -1.953523,-1.21366 c -0.157216,-0.15978 -0.214523,-1.68884 -0.0633,-1.68884 0.292962,0 2.517722,1.08543 2.517722,1.22836 0,0.23738 -0.129863,0.22014 -0.761304,-0.10101 -1.200745,-0.61067 -1.410468,-0.59866 -1.479374,0.0846 -0.03491,0.34623 -0.131097,0.56077 -0.213747,0.47678 z m 0.04604,-2.29748 c -0.538606,-1.0064 0.592934,-1.78149 1.553634,-1.06423 0.499134,0.37266 0.990079,1.27215 0.694342,1.27215 -0.08113,0 -0.301226,-0.24794 -0.489117,-0.55099 -0.300298,-0.48434 -0.342262,-0.50132 -0.346948,-0.14025 -0.01133,0.87279 -1.018888,1.21768 -1.411911,0.48332 z m 0.969702,-0.55913 c 0.06826,-0.46389 -0.09204,-0.5381 -0.544035,-0.25191 -0.335573,0.21249 -0.133621,0.88912 0.229663,0.76948 0.13769,-0.0453 0.279158,-0.27825 0.314372,-0.51757 z m -0.924326,-1.37366 c -0.132927,-0.2407 -0.241687,-0.48864 -0.241687,-0.55099 0,-0.0623 0.586057,-0.11335 1.302348,-0.11335 0.734659,0 1.302349,0.0874 1.302349,0.20035 0,0.11021 -0.444202,0.20037 -0.987115,0.20037 -0.778517,0 -1.002656,0.074 -1.060661,0.35062 -0.06427,0.30641 -0.10404,0.29543 -0.315234,-0.087 z m 0,-1.40253 c -0.132927,-0.24069 -0.241687,-0.48864 -0.241687,-0.55099 0,-0.0623 0.586057,-0.11335 1.302348,-0.11335 0.734659,0 1.302349,0.0874 1.302349,0.20036 0,0.1102 -0.444202,0.20036 -0.987115,0.20036 -0.778517,0 -1.002656,0.074 -1.060661,0.35063 -0.06427,0.3064 -0.10404,0.29542 -0.315234,-0.087 z m 0.506089,-1.77355 c -0.955851,-0.64951 -0.945728,-0.8944 0.03697,-0.8944 0.440025,0 0.829389,-0.11002 0.886372,-0.25046 0.07859,-0.19368 0.145415,-0.18786 0.294837,0.0257 0.106262,0.15186 0.293457,0.21416 0.415976,0.13844 0.127058,-0.0786 0.222762,-0.003 0.222762,0.17469 0,0.1718 -0.135243,0.31238 -0.300541,0.31238 -0.187005,0 -0.300542,0.18922 -0.300542,0.50089 0,0.63436 -0.314332,0.63255 -1.255837,-0.008 z m 0.855114,-0.24961 c 0,-0.24666 -0.170342,-0.36884 -0.550993,-0.39522 l -0.550993,-0.0382 0.473009,0.39521 c 0.579801,0.48444 0.628977,0.48742 0.628977,0.0382 z m 57.704027,-9.13254 c -3.068801,-0.66665 -5.315033,-2.81328 -6.100599,-5.83005 -0.276087,-1.06025 -0.31096,-5.74618 -0.31096,-41.78332 0,-44.203962 -0.05958,-41.815156 1.091829,-43.778924 0.689885,-1.176633 2.206577,-2.587103 3.421764,-3.182121 0.585842,-0.286858 1.689999,-0.610177 2.453679,-0.718487 1.920624,-0.272395 62.628698,-0.280582 64.545676,-0.0087 2.451818,0.347732 4.72472,1.844501 5.93641,3.909315 0.97401,1.659757 1.09224,2.695066 1.09224,9.563857 v 6.374069 l -3.35605,4.453427 -3.356052,4.453426 -0.0485,-10.719325 c -0.0482,-10.6467 -0.0514,-10.72167 -0.473053,-11.069927 -0.400324,-0.330658 -2.224097,-0.350633 -32.014802,-0.350633 -28.267403,0 -31.637134,0.03281 -32.035596,0.311903 l -0.445304,0.311904 v 40.450236 40.45025 l 0.445304,0.3119 c 0.398459,0.27909 3.766067,0.31191 32.013211,0.31191 28.247145,0 31.614751,-0.0328 32.013212,-0.31191 l 0.445308,-0.3119 v -14.04367 -14.04365 l 3.35605,-4.483 3.356052,-4.48301 0.0512,18.57918 c 0.0446,16.20026 0.0116,18.7336 -0.25787,19.78534 -0.79802,3.11495 -3.177642,5.31363 -6.391902,5.90585 -1.763862,0.32499 -63.922778,0.27376 -65.431221,-0.0539 z m 12.121857,-19.41386 c -1.667019,-0.93838 -2.140997,-3.18133 -0.990912,-4.68917 1.003095,-1.31513 0.562544,-1.27026 12.472103,-1.27026 h 10.799823 l 0.676037,0.45558 c 1.160428,0.78201 1.636258,1.68206 1.537781,2.90878 -0.0903,1.12482 -0.488825,1.83094 -1.430118,2.53391 -0.540736,0.40383 -0.796809,0.41423 -11.408209,0.46271 l -10.855059,0.0496 z m 30.846746,-1.63338 c -0.27604,-0.20184 -0.378249,-0.50154 -0.358765,-1.0519 0.02688,-0.75906 1.189204,-9.58299 1.37182,-10.41431 0.05172,-0.23544 6.462684,-8.93612 14.246603,-19.33486 17.203648,-22.982805 16.164978,-21.611677 16.371478,-21.611677 0.43757,0 7.10848,4.886825 9.22526,6.758048 l 0.73194,0.647035 -15.27979,20.385444 -15.2798,20.38544 -5.009027,2.2552 c -2.754966,1.24036 -5.149585,2.25715 -5.321371,2.25951 -0.171787,0.002 -0.48604,-0.12269 -0.698348,-0.27793 z M 43.507112,115.76388 c -2.069976,-1.04001 -2.316708,-3.99093 -0.452581,-5.4129 l 0.717803,-0.54754 17.408776,-0.0533 c 14.56098,-0.0447 17.382268,-0.009 17.246724,0.21679 -0.08913,0.14858 -1.152081,1.59265 -2.362131,3.20904 l -2.200084,2.93889 -14.830618,-4e-4 c -13.719567,-2e-4 -14.882854,-0.0266 -15.527889,-0.35064 z M 43.30072,98.6333 c -0.958806,-0.652558 -1.431986,-1.386365 -1.53564,-2.381444 -0.133411,-1.280752 0.562981,-2.539804 1.730403,-3.128491 l 0.89399,-0.450809 h 19.750851 19.750847 l 0.893997,0.450809 c 1.167415,0.588687 1.863809,1.847739 1.7304,3.128491 -0.10366,0.995079 -0.576835,1.728886 -1.535639,2.381444 l -0.662384,0.450809 H 64.140324 43.963102 Z m 71.66189,-16.895874 c -1.41568,-1.136171 -3.6472,-2.810733 -4.95893,-3.721247 -1.31174,-0.910515 -2.38497,-1.733909 -2.38497,-1.829767 0,-0.427111 1.90405,-2.590363 2.68049,-3.04539 0.96801,-0.567291 2.35331,-0.820082 3.40887,-0.622059 0.88776,0.166546 4.77997,3.016249 5.49797,4.025385 0.38978,0.54781 0.53713,1.039662 0.59803,1.996182 0.1021,1.603756 -0.15491,2.3735 -1.32848,3.978482 l -0.939,1.284187 z m -70.939813,0.307709 c -0.821708,-0.245802 -1.892983,-1.350418 -2.153752,-2.22078 -0.121564,-0.405744 -0.159183,-1.06736 -0.0836,-1.470262 0.180875,-0.964153 1.351584,-2.246593 2.288394,-2.506798 1.003242,-0.278659 39.129721,-0.278659 40.132968,0 0.919918,0.255513 2.107363,1.541821 2.281831,2.471808 0.07193,0.383655 0.0677,0.985224 -0.0095,1.336823 -0.195785,0.891388 -1.388199,2.146829 -2.27229,2.392389 -0.911851,0.253277 -39.33685,0.250233 -40.184009,-0.003 z"
       id="path2741" />
  </g>
</svg>
