<?xml version="1.0" encoding="UTF-8" standalone="no"?>
<!-- Created with Inkscape (http://www.inkscape.org/) -->

<svg
   width="104.52976mm"
   height="107.65203mm"
   viewBox="0 0 104.52976 107.65203"
   version="1.1"
   id="svg5"
   xmlns="http://www.w3.org/2000/svg"
   xmlns:svg="http://www.w3.org/2000/svg">
  <defs
     id="defs2">
    <clipPath
       clipPathUnits="userSpaceOnUse"
       id="clipPath1256">
      <rect
         style="opacity:0.89;fill:#808080;stroke-width:0.980265"
         id="rect1258"
         width="113.61488"
         height="113.61488"
         x="16.012833"
         y="65.957642" />
    </clipPath>
  </defs>
  <g
     id="layer1"
     transform="translate(-17.091537,-51.332559)">
    <rect
       style="opacity:0.89;fill:#afe9c6;stroke-width:0.750001"
       id="rect1492"
       width="112.11271"
       height="117.13155"
       x="-43.993378"
       y="206.29541" />
    <path
       style="fill:#000000;stroke-width:0.264583"
       d="m 178.94991,273.14918 c -3.43156,-8.54325 -4.48281,-11.61536 -5.1057,-14.9207 -0.49285,-2.61522 -0.50635,-44.29471 -0.015,-46.26421 1.14551,-4.59156 5.1962,-9.11432 9.87429,-11.02509 1.41379,-0.57746 2.31602,-0.71906 5.90224,-0.92634 5.17249,-0.29896 14.54607,-0.0308 16.47369,0.47128 3.22769,0.84071 5.53213,2.57709 9.26643,6.98223 4.75512,5.60936 7.80466,7.92848 12.41814,9.44376 1.19622,0.39289 2.23098,0.65831 2.29948,0.58982 0.0685,-0.0685 -0.22411,-2.14572 -0.65025,-4.61604 -0.88702,-5.14213 -0.94731,-6.27222 -0.36568,-6.85385 0.52297,-0.52297 1.79797,-0.53953 2.2218,-0.0289 0.17662,0.21281 0.72247,2.62383 1.21301,5.35781 0.49054,2.73399 0.98569,5.43012 1.10034,5.99139 l 0.20845,1.0205 2.41277,0.60846 c 1.32702,0.33464 2.7908,0.80393 3.25284,1.04286 2.18883,1.13189 2.70916,4.54938 0.98253,6.45314 -0.81715,0.90098 -1.68931,1.28479 -3.40727,1.49944 -0.8366,0.10452 -1.52108,0.2352 -1.52108,0.29039 0,0.0552 2.14312,12.031 4.7625,26.61292 2.61937,14.58191 4.7625,26.61357 4.7625,26.737 0,0.12344 -0.73296,0.18898 -1.62881,0.14566 l -1.62881,-0.0788 -2.05942,-11.37709 c -1.13268,-6.25736 -3.19317,-17.70353 -4.57887,-25.4359 -1.38569,-7.73238 -2.71054,-14.89911 -2.94412,-15.92608 l -0.42469,-1.86723 -1.50358,-0.29889 c -8.02647,-1.5956 -11.91509,-3.4382 -17.01536,-8.06261 -2.34768,-2.12866 -3.46011,-2.81488 -3.88126,-2.3942 -0.27928,0.27898 -0.40023,19.97732 -0.18255,29.73305 l 0.19091,8.55644 1.25361,1.49772 c 0.68949,0.82376 4.49888,4.83148 8.46532,8.90607 l 7.21169,7.40833 2.08363,4.23333 c 1.146,2.32834 2.08512,4.4417 2.08693,4.69636 0.003,0.43256 -0.61033,0.46204 -9.32326,0.44815 l -9.32656,-0.0149 -1.31927,-1.57056 c -0.7256,-0.86381 -4.98869,-5.23267 -9.47352,-9.70857 -7.71535,-7.69998 -8.12645,-8.0668 -7.63783,-6.81509 0.28404,0.7276 2.08881,4.95432 4.01061,9.39271 1.9218,4.43838 3.55421,8.21862 3.62759,8.40052 0.10523,0.26087 -1.84595,0.33073 -9.23725,0.33073 h -9.37066 l -3.48051,-8.66511 z m 71.11313,8.54858 c 0,-0.70556 2.48044,-6.49806 2.78258,-6.49806 0.0703,0 0.12783,1.48828 0.12783,3.30729 v 3.30729 h -1.45521 c -0.80036,0 -1.4552,-0.0524 -1.4552,-0.11652 z m -86.78333,-32.16887 c -2.98317,-0.0906 -5.45338,-0.18574 -5.48934,-0.21151 -0.97653,-0.69971 -2.37207,-2.28851 -2.86559,-3.26241 l -0.6409,-1.26476 0.002,-10.26141 c 0.002,-11.8206 0.19841,-14.28364 1.32884,-16.70662 1.47289,-3.15702 4.49043,-6.01119 7.60535,-7.1936 1.72136,-0.65342 5.06247,-1.11739 6.34332,-0.88087 l 0.8599,0.15878 v 19.94661 19.9466 l -0.85989,-0.0531 c -0.47295,-0.0292 -3.30068,-0.12717 -6.28386,-0.21773 z m 26.45122,-54.30663 c -4.10536,-1.39966 -6.79246,-4.59155 -7.37515,-8.76065 -0.66647,-4.76852 1.70957,-9.13443 6.20782,-11.40672 1.46216,-0.73861 1.77351,-0.79375 4.48174,-0.79375 2.65775,0 3.04248,0.0648 4.4317,0.74703 4.48386,2.20181 7.13288,7.02887 6.30955,11.49729 -0.84538,4.58804 -3.7462,7.7784 -8.10467,8.91364 -2.13849,0.55701 -3.91193,0.49835 -5.95099,-0.19684 z"
       id="path1370" />
    <path
       style="fill:#000000;stroke-width:0.209103"
       d="m -80.3747,245.55835 c 0,-0.092 0.08487,-0.25665 0.1886,-0.36592 0.103737,-0.10924 2.063724,-3.30383 4.355536,-7.09911 6.406666,-10.60946 10.708936,-17.69904 11.230132,-18.50576 0.260059,-0.40253 1.164651,-1.89324 2.010206,-3.31269 1.448231,-2.43118 2.993857,-4.21509 3.652066,-4.21509 0.141943,0 0.312641,-0.25876 0.379328,-0.57502 0.184559,-0.8753 1.465258,-6.37676 2.519091,-10.82118 4.467051,-18.83929 4.51877,-19.09773 4.519424,-22.58331 8.27e-4,-4.27709 -0.72433,-7.25524 -3.271795,-13.43738 -4.300372,-10.4361 -4.567983,-11.16201 -5.337308,-14.47811 -0.451119,-1.94451 -0.462418,-2.34232 -0.534517,-18.81938 -0.08226,-18.80073 -0.10408,-18.45661 1.354885,-21.37291 1.484025,-2.9664 4.848553,-5.67679 8.123745,-6.54431 1.838181,-0.4869 14.537021,-0.4686 16.195028,0.0233 2.855248,0.84715 4.648761,2.1401 7.023461,5.06321 3.365475,4.14271 5.045322,5.64782 7.918839,7.09516 1.284766,0.64711 4.071296,1.59229 4.229086,1.43451 0.0484,-0.0483 -0.24551,-1.93327 -0.65301,-4.18873 -0.600725,-3.32488 -0.695728,-4.19999 -0.502085,-4.625 0.417705,-0.91674 1.884465,-0.93328 2.263395,-0.0255 0.10385,0.24879 0.53522,2.47545 0.9586,4.94812 0.42338,2.47266 0.78268,4.5145 0.79848,4.5374 0.0158,0.0229 0.91602,0.2393 2.00051,0.48086 1.0844898,0.24157 2.2840998,0.63222 2.6657898,0.86812 1.00369,0.62032 1.5879,1.87944 1.4651,3.15759 -0.18134,1.88723 -1.55259,3.08413 -3.5334298,3.08413 -0.67302,0 -1.22369,0.0617 -1.22369,0.13681 0,0.0752 0.37366,2.16889 0.83036,4.65257 0.7866198,4.27787 1.8601898,10.25344 4.8122898,26.78543 2.301871,12.89073 3.213711,17.49935 3.213711,17.49935 0,0 39.8712402,-13.58887 41.1248202,29.5492 0.31088,8.97127 0.82663,25.6598 0.8292,26.83002 0.002,0.74922 -0.0643,0.96556 -0.2592,0.84856 -0.16022,-0.0963 -0.14403,-0.0127 0.0418,0.21637 0.30418,0.37453 0.58443,5.58324 0.62268,11.57356 l 0.015,2.35242 h -60.013063 c -33.007186,0 -60.013065,-0.0752 -60.013065,-0.16728 z m 65.894677,-0.61685 c 0.2601,-0.33163 0.25271,-0.33904 -0.0789,-0.0789 -0.20127,0.15784 -0.36594,0.32252 -0.36594,0.36593 0,0.17211 0.17171,0.0615 0.44488,-0.28699 z m 1.67282,-1.67284 c 0.26011,-0.33166 0.25271,-0.33904 -0.0789,-0.0789 -0.20127,0.15786 -0.36593,0.32252 -0.36593,0.36595 0,0.1721 0.17171,0.0615 0.44488,-0.28698 z m 1.67286,-1.67284 c 0.26009,-0.33164 0.2527,-0.33905 -0.0789,-0.0789 -0.20126,0.15784 -0.36594,0.3225 -0.36594,0.36591 0,0.17212 0.17171,0.0615 0.44488,-0.28697 z m 1.6728298,-1.67284 c 0.26011,-0.33165 0.2527,-0.33903 -0.0789,-0.0789 -0.20125,0.15786 -0.36594,0.32252 -0.36594,0.36594 0,0.17211 0.17171,0.0614 0.4449,-0.287 z m 1.67285,-1.67283 c 0.26007,-0.33166 0.25269,-0.33903 -0.0789,-0.0789 -0.20124,0.15783 -0.36592,0.3225 -0.36592,0.36592 0,0.17212 0.1717,0.0615 0.44487,-0.28698 z m 1.67282,-1.67283 c 0.26011,-0.33167 0.25271,-0.33905 -0.0789,-0.0789 -0.20126,0.15784 -0.36593,0.3225 -0.36593,0.36592 0,0.1721 0.17172,0.0615 0.44489,-0.28698 z m 1.672841,-1.67284 c 0.26011,-0.33166 0.25271,-0.33904 -0.0789,-0.0789 -0.20127,0.15784 -0.36594,0.32253 -0.36594,0.36594 0,0.17211 0.17171,0.0615 0.44488,-0.28698 z m 1.67285,-1.67284 c 0.26009,-0.33167 0.25271,-0.33905 -0.0789,-0.0789 -0.20127,0.15784 -0.36594,0.32251 -0.36594,0.36593 0,0.17209 0.1717,0.0615 0.44486,-0.28698 z m 1.67283,-1.67284 c 0.26009997,-0.33165 0.25271997,-0.33903 -0.0789,-0.0789 -0.20127,0.15784 -0.36595,0.32252 -0.36595,0.36594 0,0.17212 0.17174,0.0615 0.44489,-0.28698 z m 39.7032502,-0.32019 c 0,-0.0324 -0.58812,-0.62047 -1.30689,-1.3069 l -1.30692,-1.24809 1.24808,1.30689 c 1.15936,1.214 1.36573,1.4026 1.36573,1.2481 z M 0.57551777,229.88595 c 0.2601,-0.33163 0.2527,-0.33905 -0.0789,-0.0789 -0.20127,0.15785 -0.36596,0.32252 -0.36596,0.36593 0,0.17208 0.17173,0.0615 0.44489,-0.28698 z M -39.030906,208.89635 c 0.720833,-0.3575 1.300039,-0.9001 2.075199,-1.94408 1.355813,-1.82604 2.302927,-2.39992 4.387929,-2.65877 1.86479,-0.23153 2.417762,-0.4831 3.841952,-1.74799 1.567432,-1.39211 2.146356,-1.62379 4.470098,-1.78897 l 2.06539,-0.14683 1.141146,-1.28109 c 0.654019,-0.7342 1.736115,-1.631 2.534912,-2.10081 0.766572,-0.45087 1.567358,-0.94963 1.779527,-1.10838 0.36379,-0.27221 0.13873,-0.812 -3.951511,-9.47757 -2.385502,-5.0539 -5.07619,-10.72165 -5.979314,-12.59497 -0.90312,-1.87333 -1.642039,-3.44355 -1.642039,-3.48933 0,-0.0459 -0.654434,-1.00665 -1.454298,-2.1352 -1.094689,-1.54456 -3.188791,-3.78385 -8.468741,-9.05579 -3.857945,-3.85213 -7.014446,-6.93474 -7.014446,-6.85027 0,0.12645 4.008905,9.4822 6.790688,15.8477 0.960478,2.19786 1.44029,4.51537 1.42717,6.89334 -0.0086,1.54876 -0.319086,3.59917 -1.409305,9.30516 -0.769094,4.02527 -1.44583,7.60096 -1.503857,7.94599 -0.05803,0.34502 -0.757788,4.11381 -1.555024,8.37509 -0.797234,4.26126 -1.44952,7.95167 -1.44952,8.2009 0,0.42834 0.07963,0.44913 1.457063,0.38041 0.997088,-0.0497 1.772724,-0.22921 2.456981,-0.56854 z m 74.317814,-14.13998 c 0.26013,-0.33167 0.25272,-0.33904 -0.0789,-0.0789 -0.20124,0.15784 -0.36591,0.32252 -0.36591,0.36594 0,0.17211 0.17169,0.0615 0.44487,-0.28699 z m -77.159659,-0.62733 c 0.2601,-0.33165 0.252702,-0.33904 -0.07896,-0.0789 -0.201263,0.15784 -0.365932,0.3225 -0.365932,0.36593 0,0.17209 0.171715,0.0615 0.444883,-0.287 z m 78.832519,-1.04552 c 0.26008,-0.33164 0.2527,-0.33904 -0.0789,-0.0789 -0.20124,0.15784 -0.36592,0.32252 -0.36592,0.36593 0,0.1721 0.17171,0.0615 0.44486,-0.28699 z M -6.9835832,182.34808 c 0.002,-0.0678 0.47494,-0.96177 1.04972,-1.98649 0.574771,-1.02471 1.044801,-2.09837 1.044531,-2.38589 -2e-4,-0.2875 -0.2744,-2.02829 -0.609181,-3.86843 -0.84275,-4.63199 -2.34249,-13.08563 -2.41128,-13.5918 -0.0312,-0.23002 -0.11373,-0.65347 -0.1832,-0.94097 -0.0696,-0.28753 -0.40851,-2.12242 -0.75337,-4.07756 -0.34486,-1.95512 -1.14409,-6.42474 -1.7760398,-9.93246 -0.63197,-3.50774 -1.72254,-9.62166 -2.42346,-13.58648 -0.70094,-3.96483 -1.37828,-7.27298 -1.50521,-7.35142 -0.12692,-0.0784 -1.08632,-0.30673 -2.13197,-0.50731 -5.616903,-1.07742 -9.045738,-2.79585 -12.795158,-6.41256 -1.916162,-1.84834 -2.337823,-2.08124 -2.787337,-1.53962 -0.299604,0.36101 -0.19726,29.11671 0.107306,30.1523 0.129041,0.43871 2.334405,2.84007 6.778076,7.38035 l 6.5868,6.73005 1.722182,3.47516 c 1.333761,2.69141 1.669011,3.53926 1.486431,3.75924 -0.18276,0.22023 -0.16735,0.25782 0.0686,0.16728 0.22844,-0.0877 1.05213,1.46235 3.30333,6.21608 1.64946,3.48307 3.3319298,7.02154 3.7387898,7.86324 l 0.73976,1.53038 0.37302,-0.48486 c 0.20517,-0.26666 0.37511,-0.54037 0.37766,-0.60823 z m -16.4879508,-6.62024 c 0.260099,-0.33167 0.252705,-0.33907 -0.07896,-0.0789 -0.201263,0.15784 -0.365934,0.32253 -0.365934,0.36594 0,0.1721 0.171715,0.0615 0.444885,-0.28698 z m 1.672839,-1.67285 c 0.260098,-0.33164 0.252703,-0.33905 -0.07896,-0.0789 -0.201264,0.15786 -0.365932,0.32252 -0.365932,0.36595 0,0.1721 0.171715,0.0615 0.444881,-0.287 z m 1.733444,-1.69715 c 0.06158,-0.0997 -0.09754,-0.35842 -0.353591,-0.57506 -0.464339,-0.39283 -0.464599,-0.39275 -0.09918,0.0414 0.201513,0.23935 0.303452,0.49811 0.22653,0.57505 -0.07692,0.0769 -0.08268,0.13985 -0.01281,0.13985 0.06989,0 0.177443,-0.0817 0.239021,-0.18115 z m 1.612231,-1.64852 c 0.260102,-0.33166 0.252703,-0.33906 -0.07896,-0.0789 -0.201262,0.15785 -0.365933,0.32251 -0.365933,0.36595 0,0.17209 0.171716,0.0615 0.444885,-0.287 z m 1.672847,-1.67284 c 0.26009,-0.33165 0.2527,-0.33905 -0.07895,-0.0789 -0.201265,0.15784 -0.365941,0.3225 -0.365941,0.36593 0,0.17209 0.171711,0.0614 0.444881,-0.28699 z m 10.0370298,-10.03702 c 0.26009,-0.33165 0.25271,-0.33905 -0.0789,-0.0789 -0.20126,0.15786 -0.36593,0.32252 -0.36593,0.36595 0,0.17211 0.17171,0.0615 0.44487,-0.28698 z M -72.742375,142.13749 c -1.061424,-0.46369 -2.023299,-1.42059 -2.537096,-2.52394 l -0.490839,-1.05409 0.0011,-8.99151 c 0.0012,-9.93781 0.06659,-10.58949 1.299532,-12.94502 0.899413,-1.7183 3.048582,-3.81393 4.782292,-4.66314 1.913212,-0.93713 3.305091,-1.19866 5.988842,-1.12528 l 0.679593,0.0186 v 15.78741 15.78741 l -4.54803,-0.009 c -3.276358,-0.003 -4.72343,-0.0848 -5.175342,-0.28223 z m 26.056191,-42.373541 c -2.584418,-0.537057 -5.108736,-2.429129 -6.134837,-4.598285 -2.128846,-4.500358 -0.414456,-9.50668 3.990557,-11.653126 1.518563,-0.739955 1.703891,-0.779211 3.689916,-0.781567 1.919389,-0.0023 2.206456,0.05219 3.496926,0.663514 3.917494,1.855798 5.917764,5.931472 4.875307,9.933733 -0.966202,3.709502 -3.910146,6.186851 -7.745924,6.518253 -0.689493,0.05956 -1.666867,0.02243 -2.171945,-0.08252 z"
       id="path1658" />
    <path
       style="fill:#000000;stroke-width:0.2696"
       d="m 117.42485,169.23409 c -0.0105,-0.25948 -0.18067,-0.47179 -0.37831,-0.47179 -0.21285,0 -0.33192,-0.24729 -0.29206,-0.60662 0.037,-0.33362 0.0792,-0.72791 0.0939,-0.87619 0.0145,-0.14828 0.14605,-0.0877 0.29208,0.1348 0.21726,0.33098 0.30759,0.33911 0.49755,0.0449 0.18714,-0.28997 0.26381,-0.27693 0.39593,0.0673 0.11532,0.30049 0.005,0.427 -0.36687,0.427 -0.29192,0 -0.53074,0.12848 -0.53074,0.28552 0,0.15703 0.11292,0.21571 0.25097,0.13039 0.37555,-0.23211 0.51913,0.18653 0.27343,0.79729 -0.18417,0.45783 -0.21977,0.468 -0.23585,0.0673 z m 1.28579,0.0998 c 0.21831,-0.13837 0.32495,-0.58098 0.26961,-1.119 -0.0521,-0.50566 0.0417,-0.93464 0.21725,-0.99323 0.19337,-0.0646 0.34527,0.35523 0.40635,1.12313 0.0919,1.15602 0.0588,1.22603 -0.57841,1.22214 -0.47523,-0.003 -0.5687,-0.0722 -0.3148,-0.23304 z m 1.8237,0.013 c -0.0864,-0.13974 0.054,-0.23744 0.31185,-0.21714 0.34675,0.0273 0.46891,-0.16789 0.46891,-0.74935 0,-0.43249 -0.15164,-0.83689 -0.337,-0.89869 -0.18535,-0.0617 -0.337,0.0696 -0.337,0.29207 0,0.22243 0.15165,0.4656 0.337,0.5404 0.19451,0.0785 0.12958,0.14498 -0.15356,0.15726 -0.359,0.0156 -0.46745,-0.14138 -0.40439,-0.58531 0.0565,-0.39816 0.27144,-0.60661 0.62535,-0.60661 0.44902,0 0.5392,0.17974 0.5392,1.07471 0,0.78614 -0.11992,1.09781 -0.44665,1.16073 -0.24568,0.0472 -0.51734,-0.0283 -0.60371,-0.16807 z m 1.83824,-0.13747 c -0.0848,-0.22085 -0.11471,-0.74543 -0.0666,-1.16572 0.0635,-0.55529 0.23488,-0.76418 0.62669,-0.76418 0.44902,0 0.53919,0.17974 0.53919,1.07471 0,0.8099 -0.11645,1.09714 -0.47261,1.16573 -0.25994,0.05 -0.54195,-0.0897 -0.62671,-0.31054 z m 0.91996,-1.0226 c -0.0495,-0.35074 -0.21155,-0.61378 -0.35984,-0.58455 -0.34573,0.0682 -0.4981,0.7966 -0.28356,1.35569 0.24362,0.63486 0.75552,0.0213 0.6434,-0.77115 z m 1.00695,1.06724 c -0.063,-0.19632 -0.0929,-0.72089 -0.0666,-1.16574 0.0362,-0.61313 0.17827,-0.8088 0.58702,-0.8088 0.44902,0 0.53921,0.17974 0.53921,1.07471 0,0.8099 -0.11647,1.09714 -0.47262,1.16573 -0.25994,0.05 -0.5241,-0.0696 -0.58702,-0.2659 z m 0.92483,-0.35694 c 0,-0.22242 -0.18199,-0.40441 -0.40441,-0.40441 -0.22241,0 -0.40439,0.18199 -0.40439,0.40441 0,0.22243 0.18198,0.40439 0.40439,0.40439 0.22242,0 0.40441,-0.18196 0.40441,-0.40439 z m 0,-1.07841 c 0,-0.22242 -0.11417,-0.40439 -0.25369,-0.40439 -0.33997,0 -0.58346,0.42099 -0.36805,0.6364 0.30362,0.3036 0.62174,0.18491 0.62174,-0.23201 z m 0.97164,1.52817 c -0.0864,-0.13974 0.054,-0.23744 0.31186,-0.21713 0.34674,0.0273 0.4689,-0.16789 0.4689,-0.74936 0,-0.43249 -0.15164,-0.83689 -0.337,-0.89868 -0.18534,-0.0617 -0.337,0.0696 -0.337,0.29207 0,0.22242 0.15166,0.4656 0.337,0.54039 0.1945,0.0785 0.12958,0.14498 -0.15355,0.15726 -0.359,0.0156 -0.46746,-0.14138 -0.4044,-0.58532 0.0565,-0.39815 0.27143,-0.6066 0.62535,-0.6066 0.44903,0 0.53919,0.17973 0.53919,1.07472 0,0.78613 -0.11992,1.0978 -0.44665,1.16073 -0.24567,0.0472 -0.51733,-0.0283 -0.6037,-0.16808 z m 1.95071,-0.013 c 0.21832,-0.13837 0.32495,-0.58098 0.26961,-1.119 -0.052,-0.50566 0.0418,-0.93463 0.21726,-0.99323 0.19337,-0.0646 0.34527,0.35523 0.40635,1.12314 0.0919,1.15601 0.0588,1.22603 -0.57843,1.22213 -0.47522,-0.003 -0.5687,-0.0722 -0.31479,-0.23304 z m 1.8237,0.013 c -0.0864,-0.13974 0.041,-0.23744 0.28285,-0.21713 0.6683,0.0562 0.77327,-0.65076 0.12192,-0.82109 -0.32362,-0.0846 -0.56761,-0.36669 -0.56761,-0.65619 0,-0.38177 0.18396,-0.5 0.74141,-0.47648 0.45614,0.0193 0.55986,0.0787 0.2696,0.15456 -0.58615,0.15319 -0.61008,0.51222 -0.0485,0.72772 0.55052,0.21126 0.39816,1.34445 -0.19597,1.45763 -0.24568,0.0468 -0.51734,-0.0292 -0.60371,-0.16902 z m 1.88719,0 c -0.0864,-0.13974 0.041,-0.23744 0.28286,-0.21713 0.6683,0.0562 0.77326,-0.65076 0.12193,-0.82109 -0.32362,-0.0846 -0.56761,-0.36669 -0.56761,-0.65619 0,-0.37832 0.18899,-0.50341 0.7414,-0.49067 l 0.7414,0.0172 -0.674,0.27891 -0.674,0.27889 0.62557,0.24154 c 0.4441,0.17149 0.60053,0.41722 0.5392,0.84707 -0.0887,0.62233 -0.85671,0.9747 -1.13675,0.52159 z m 1.83826,-0.13746 c -0.0848,-0.22086 -0.11471,-0.74543 -0.0666,-1.16573 0.0635,-0.55529 0.2349,-0.76418 0.6267,-0.76418 0.44903,0 0.5392,0.17973 0.5392,1.07472 0,0.80989 -0.11645,1.09713 -0.47261,1.16572 -0.25994,0.05 -0.54197,-0.0897 -0.62671,-0.31053 z m 0.91995,-1.02261 c -0.0495,-0.35073 -0.21155,-0.61377 -0.35983,-0.58454 -0.34574,0.0682 -0.49811,0.7966 -0.28355,1.35569 0.24362,0.63486 0.75551,0.0213 0.64338,-0.77115 z M 45.233667,156.94006 c -2.779696,-0.9665 -4.953202,-3.0719 -5.886274,-5.70184 -0.389561,-1.098 -1.298949,-12.21246 -3.341912,-40.84453 C 35.84678,108.1695 35.352942,101.43954 34.908062,95.438247 33.904673,81.902799 33.904152,81.851726 34.760941,80.99494 l 0.661745,-0.661749 h 33.945211 33.945213 l 0.71077,0.710766 c 0.89777,0.897776 0.90142,0.382088 -0.0979,13.847685 -0.44567,6.005358 -1.5348,20.806458 -2.42029,32.891308 -0.8855,12.08487 -1.718263,22.33989 -1.850586,22.78895 -0.765914,2.59914 -2.604401,4.74656 -5.122272,5.98304 l -1.52585,0.7493 -23.185682,0.0616 c -21.761331,0.0578 -23.271808,0.0317 -24.587649,-0.42581 z m 8.693447,-11.21638 c 0.814505,-0.81452 0.804559,0.68566 0.134113,-20.23234 C 52.81387,86.573649 52.961054,89.528866 52.226664,88.656096 51.42875,87.707825 50.142736,87.619313 49.098402,88.440785 c -0.692019,0.544345 -0.710299,0.636572 -0.707961,3.572213 0.0014,1.657394 0.364533,14.114262 0.80714,27.681932 0.442606,13.56766 0.805487,24.82563 0.806404,25.01773 8.08e-4,0.19209 0.299451,0.64704 0.663411,1.01102 0.900333,0.90032 2.359386,0.90032 3.259718,0 z m 17.127814,-0.0339 0.653596,-0.69572 V 117.08868 89.183358 L 70.952089,88.5327 c -1.100765,-0.946839 -2.375187,-0.877007 -3.263615,0.178829 l -0.697966,0.829487 v 27.592724 27.59272 l 0.697966,0.82949 c 0.927848,1.10268 2.401204,1.16122 3.366454,0.13377 z m 16.957594,0.16338 c 0.292789,-0.29279 0.594765,-0.8084 0.671054,-1.14579 0.112665,-0.49831 1.294181,-40.18126 1.558118,-52.331763 l 0.06928,-3.190129 -0.756434,-0.651685 c -0.965382,-0.831693 -2.103013,-0.833088 -3.067161,-0.0038 -0.688899,0.592564 -0.75993,0.828662 -0.831391,2.76341 -0.212046,5.740906 -1.411035,49.410347 -1.411035,51.392567 0,1.89717 0.09358,2.39775 0.55877,2.98916 0.709819,0.90239 2.39114,0.99565 3.208786,0.17801 z M 30.991456,74.613701 c -0.682729,-0.81138 -0.72151,-0.996292 -0.607831,-2.898209 0.145718,-2.437979 0.79578,-3.858818 2.389697,-5.223149 1.909969,-1.634861 2.792254,-1.796006 9.833349,-1.796006 h 6.254618 l 0.114767,-2.359008 c 0.195761,-4.023861 2.022381,-6.877712 5.492692,-8.581611 l 1.602921,-0.787022 h 13.755169 13.75517 l 1.796713,0.884445 c 3.392536,1.670004 5.242967,4.595971 5.536042,8.753788 l 0.147277,2.089408 h 5.574166 c 6.242364,0 7.553524,0.231143 9.244504,1.62971 1.67085,1.381916 2.4333,2.970528 2.5715,5.357955 0.11199,1.934494 0.074,2.11702 -0.60983,2.929699 l -0.72927,0.866673 H 69.416916 31.720715 Z M 85.052763,63.01133 c -0.0014,-2.158171 -0.640287,-3.274376 -2.293009,-4.005454 -1.146455,-0.507132 -1.753796,-0.52781 -13.318625,-0.453461 -11.755011,0.07556 -12.139651,0.09452 -12.86157,0.633762 -1.374719,1.026843 -1.823348,1.895561 -1.94211,3.760657 l -0.111399,1.749503 h 15.263859 15.263862 l -0.0012,-1.685007 z"
       id="path2347" />
  </g>
</svg>
